<?xml version="1.0" encoding="UTF-8"?><svg id="a" xmlns="http://www.w3.org/2000/svg" viewBox="0 0 256 256"><defs><style>.b{fill:#fff;}.c{fill:#ccc;}</style></defs><path class="c" d="M128,13.54c-63.21,0-114.45,51.25-114.45,114.46s51.24,114.45,114.45,114.45,114.46-51.24,114.46-114.45S191.22,13.54,128,13.54Zm0,187.14c-40.14,0-72.68-32.54-72.68-72.68S87.86,55.33,128,55.33s72.69,32.54,72.69,72.68-32.55,72.68-72.69,72.68Z"/><path class="b" d="M116.54,22.2h5.36l11.76,18.72V22.2h5.8v28.56h-5.32l-11.8-18.56v18.56h-5.8V22.2Z"/><path class="b" d="M210.66,110.53h19.48v5.08h-13.52v6.24h12.72v5.12h-12.72v7.04h14.36l-.6,5.08h-19.72v-28.56Z"/><path class="b" d="M123.58,225.21c.13,1.76,.7,3.04,1.7,3.84,1,.8,2.47,1.2,4.42,1.2,.93,0,1.72-.1,2.36-.3,.64-.2,1.16-.47,1.56-.8,.4-.33,.69-.73,.86-1.18,.17-.45,.26-.95,.26-1.48,0-.75-.28-1.45-.84-2.1-.56-.65-1.59-1.13-3.08-1.42l-3.72-.68c-1.47-.27-2.76-.61-3.88-1.04-1.12-.43-2.06-.98-2.82-1.66-.76-.68-1.34-1.51-1.74-2.5-.4-.99-.6-2.16-.6-3.52s.27-2.56,.82-3.6c.55-1.04,1.31-1.91,2.28-2.6,.97-.69,2.14-1.22,3.5-1.58,1.36-.36,2.85-.54,4.48-.54,2.08,0,3.81,.24,5.2,.72,1.39,.48,2.51,1.11,3.36,1.9,.85,.79,1.49,1.7,1.9,2.74s.69,2.12,.82,3.24l-5.64,.72c-.29-1.57-.86-2.71-1.7-3.4-.84-.69-2.11-1.04-3.82-1.04-1.01,0-1.85,.09-2.5,.26s-1.18,.4-1.58,.68c-.4,.28-.68,.61-.84,.98-.16,.37-.24,.76-.24,1.16,0,1.07,.3,1.87,.9,2.4s1.62,.95,3.06,1.24l3.92,.76c3.09,.61,5.36,1.61,6.8,2.98,1.44,1.37,2.16,3.35,2.16,5.94,0,1.25-.23,2.41-.7,3.46-.47,1.05-1.16,1.97-2.08,2.76-.92,.79-2.07,1.4-3.46,1.84-1.39,.44-3.01,.66-4.88,.66-3.89,0-6.87-.83-8.94-2.5-2.07-1.67-3.18-4.18-3.34-7.54h6.04Z"/><path class="b" d="M20.74,110.53h5.81l3.98,19.84,4.05-19.68h5.46l4.22,19.68,3.73-19.84h5.53l-6.71,28.56h-5.01l-4.6-21.12-4.46,21.12h-4.88l-7.12-28.56Z"/></svg>