<svg xmlns="http://www.w3.org/2000/svg" viewBox="0 0 32 32"><g id="web_icons" data-name="web icons"><path d="M14.41,18.13A3.41,3.41,0,0,1,14.58,17a3.79,3.79,0,0,1,.45-.9,5.31,5.31,0,0,1,.64-.78c.23-.24.47-.49.72-.73l.52-.53a3.69,3.69,0,0,0,.43-.53,2.85,2.85,0,0,0,.29-.64,2.69,2.69,0,0,0,.11-.79,1.7,1.7,0,0,0-.48-1.28A1.72,1.72,0,0,0,16,10.4a2.52,2.52,0,0,0-1.65.49,2.16,2.16,0,0,0-.56.83,1.32,1.32,0,0,1-1.39.77h0A1.38,1.38,0,0,1,11.3,10.6l0,0a4.28,4.28,0,0,1,1-1.39,4.35,4.35,0,0,1,1.53-.94A6.2,6.2,0,0,1,16,7.89a5.4,5.4,0,0,1,3.53,1,3.53,3.53,0,0,1,1.27,2.86,4.82,4.82,0,0,1-.14,1.2,3.54,3.54,0,0,1-.37.91,4.72,4.72,0,0,1-.52.72c-.2.21-.4.43-.61.64l-.72.73a6.26,6.26,0,0,0-.59.7,3.5,3.5,0,0,0-.4.73,2.45,2.45,0,0,0-.14.83v.36c0,1.52-2.91,1.49-2.91,0Z" fill="#59595c"/><path d="M17.5,22.51a1.63,1.63,0,0,1-3.25,0A1.63,1.63,0,0,1,17.5,22.51Z" fill="#59595c"/><circle cx="16" cy="16" r="12.38" fill="none" stroke="#59595c" stroke-linecap="round" stroke-miterlimit="10" stroke-width="1.8"/></g></svg>